<svg width="1200" height="800" viewBox="0 0 1200 800" fill="none" xmlns="http://www.w3.org/2000/svg">
    <defs>
        <linearGradient id="bg-gradient" x1="0%" y1="0%" x2="100%" y2="100%">
            <stop offset="0%" stop-color="#f0f4f8" />
            <stop offset="100%" stop-color="#e5e7eb" />
        </linearGradient>
        <linearGradient id="ai-gradient" x1="0%" y1="0%" x2="100%" y2="0%">
            <stop offset="0%" stop-color="#3b82f6" />
            <stop offset="100%" stop-color="#1d4ed8" />
        </linearGradient>
        <linearGradient id="sust-gradient" x1="0%" y1="0%" x2="100%" y2="0%">
            <stop offset="0%" stop-color="#10b981" />
            <stop offset="100%" stop-color="#059669" />
        </linearGradient>
        <linearGradient id="crea-gradient" x1="0%" y1="0%" x2="100%" y2="0%">
            <stop offset="0%" stop-color="#f59e0b" />
            <stop offset="100%" stop-color="#d97706" />
        </linearGradient>
    </defs>
    <rect width="100%" height="100%" fill="url(#bg-gradient)" />
    
    <!-- Decorative elements -->
    <circle cx="30%" cy="30%" r="200" fill="url(#ai-gradient)" opacity="0.1" />
    <circle cx="70%" cy="60%" r="250" fill="url(#sust-gradient)" opacity="0.1" />
    <circle cx="20%" cy="70%" r="150" fill="url(#crea-gradient)" opacity="0.1" />
    
    <!-- Wave patterns -->
    <g opacity="0.05">
        <path d="M0,200 Q600,100 1200,200" stroke="#000" stroke-width="2" fill="none" />
        <path d="M0,300 Q600,200 1200,300" stroke="#000" stroke-width="2" fill="none" />
        <path d="M0,400 Q600,300 1200,400" stroke="#000" stroke-width="2" fill="none" />
        <path d="M0,500 Q600,400 1200,500" stroke="#000" stroke-width="2" fill="none" />
        <path d="M0,600 Q600,500 1200,600" stroke="#000" stroke-width="2" fill="none" />
        <path d="M0,700 Q600,600 1200,700" stroke="#000" stroke-width="2" fill="none" />
    </g>
    
    <!-- Grid overlay -->
    <g opacity="0.03">
        <path d="M100,0 L100,800" stroke="#000" stroke-width="1" />
        <path d="M300,0 L300,800" stroke="#000" stroke-width="1" />
        <path d="M500,0 L500,800" stroke="#000" stroke-width="1" />
        <path d="M700,0 L700,800" stroke="#000" stroke-width="1" />
        <path d="M900,0 L900,800" stroke="#000" stroke-width="1" />
        <path d="M1100,0 L1100,800" stroke="#000" stroke-width="1" />
        
        <path d="M0,100 L1200,100" stroke="#000" stroke-width="1" />
        <path d="M0,300 L1200,300" stroke="#000" stroke-width="1" />
        <path d="M0,500 L1200,500" stroke="#000" stroke-width="1" />
        <path d="M0,700 L1200,700" stroke="#000" stroke-width="1" />
    </g>
</svg>
